<svg width="202" height="32" viewBox="0 0 202 32" fill="none" xmlns="http://www.w3.org/2000/svg">
<mask id="mask0_484_1678" style="mask-type:luminance" maskUnits="userSpaceOnUse" x="0" y="0" width="202" height="32">
<path d="M0 0H201.773V32H0V0Z" fill="white"/>
</mask>
<g mask="url(#mask0_484_1678)">
<path d="M56.729 1.024L56.617 5.689L56.592 6.524L56.18 5.801C55.174 4.017 53.785 2.633 52.048 1.664C50.348 0.7 48.426 0.21 46.335 0.21C43.699 0.21 41.28 0.92 39.151 2.31C37.014 3.71 35.281 5.623 33.996 7.997C32.756 10.367 32.125 13.111 32.125 16.146C32.125 19.181 32.715 21.879 33.884 24.253C35.048 26.581 36.682 28.452 38.735 29.811C40.822 31.125 43.221 31.794 45.857 31.794C50.543 31.794 54.014 29.915 56.184 26.202L56.592 25.504L56.617 26.314L56.729 30.954H63.469V1.023H56.729V1.024ZM54.422 22.896C52.796 24.684 50.659 25.586 48.069 25.586C45.479 25.586 43.325 24.684 41.659 22.9C40.016 21.096 39.218 18.847 39.218 16.028C39.218 13.209 40.041 10.89 41.658 9.156C43.321 7.372 45.478 6.466 48.068 6.466C50.659 6.466 52.796 7.372 54.422 9.156C56.039 10.894 56.858 13.206 56.858 16.028C56.858 18.851 56.038 21.121 54.422 22.896ZM86.862 1.126L86.252 7.728C85.1056 7.31763 83.8977 7.10527 82.68 7.1C80.256 7.1 78.36 8.003 77.042 9.77C75.737 11.478 75.08 13.944 75.08 17.1V30.948H68V1.035H74.785L74.839 6.859L74.852 8.136L75.288 6.934C76.028 4.914 77.126 3.334 78.568 2.249C79.998 1.13 81.682 0.557 83.578 0.557C84.202 0.557 84.834 0.619 85.453 0.731C86.031 0.835 86.501 0.968 86.867 1.126H86.862ZM119.693 1.047L107.956 30.95H100.444L88.704 1.047H96.656L104.24 23.672L104.348 23.996L104.456 23.672L112.222 1.047H119.693ZM143.905 1.02L143.772 5.689L143.755 6.524L143.343 5.801C142.333 4.017 140.945 2.633 139.211 1.664C137.51 0.7 135.59 0.21 133.499 0.21C130.859 0.21 128.443 0.92 126.314 2.31C124.178 3.71 122.44 5.623 121.159 7.997C119.916 10.367 119.284 13.111 119.284 16.146C119.284 19.181 119.879 21.883 121.043 24.253C122.207 26.581 123.845 28.452 125.899 29.811C127.986 31.125 130.38 31.794 133.02 31.794C137.702 31.794 141.177 29.915 143.339 26.202L143.751 25.504L143.767 26.314L143.888 30.954H150.623L150.636 1.029H143.901L143.905 1.021V1.02ZM141.572 22.892C139.951 24.68 137.814 25.582 135.22 25.582C132.625 25.582 130.476 24.68 128.809 22.896C127.167 21.092 126.373 18.843 126.373 16.024C126.373 13.205 127.192 10.885 128.809 9.152C130.472 7.368 132.63 6.462 135.22 6.462C137.81 6.462 139.951 7.368 141.572 9.152C143.19 10.89 144.009 13.202 144.009 16.024C144.009 18.847 143.19 21.117 141.572 22.892ZM201.773 12.858V30.948H194.722V14.233C194.722 9.053 192.697 6.426 188.702 6.426C186.573 6.426 184.885 7.178 183.688 8.658C182.545 10.088 181.967 12.146 181.967 14.774V30.95H174.97V14.176C174.97 9.033 172.966 6.426 169.012 6.426C166.879 6.426 165.191 7.179 163.998 8.659C162.813 10.085 162.219 12.143 162.219 14.775V30.95H155.222V1.026H161.986L162.04 5.408L162.052 6.381L162.476 5.508C163.261 3.87588 164.519 2.5172 166.085 1.608C167.677 0.677 169.54 0.207 171.635 0.207C176.125 0.207 179.223 2.186 180.848 6.09L181.056 6.585L181.272 6.098C182.087 4.278 183.38 2.826 185.122 1.783C186.864 0.73 188.851 0.207 191.03 0.207C194.485 0.207 197.154 1.305 198.971 3.467C200.829 5.599 201.773 8.763 201.773 12.858ZM29.963 22.035C29.963 25.61 28.304 28.295 25.033 30.009C21.892 31.655 18.051 32 15.377 32C10.197 32 6.26 31.01 3.678 29.056C1.285 27.244 0.05 24.616 0.004 21.25V21.146L0 20.937H7.35L7.359 21.137V21.232C7.517 24.77 10.435 26.72 15.586 26.72C17.698 26.72 22.604 26.325 22.604 22.662C22.604 19.706 18.601 19.149 13.969 18.497C7.754 17.627 0.711 16.638 0.711 9.508C0.71 3.468 5.604 0 14.13 0C23.252 0 28.378 3.363 28.964 9.728L28.972 9.841L28.993 10.069H21.63L21.614 9.879L21.605 9.787C21.405 7.608 19.415 5.28 14.421 5.28C10.164 5.28 7.823 6.619 7.823 9.05C7.823 11.757 11.693 12.231 16.18 12.784C19.244 13.158 22.715 13.587 25.364 14.838C28.457 16.301 29.963 18.658 29.963 22.035Z" fill="white"/>
</g>
</svg>
